<svg xmlns="http://www.w3.org/2000/svg" width="29.21" height="24.073" viewBox="0 0 28.21 21.073">
  <g id="discord-icon-svgrepo-com_1_" data-name="discord-icon-svgrepo-com (1)" transform="translate(-433.928)">
    <path id="Path_12706" data-name="Path 12706" d="M458.672,1.893A23.534,23.534,0,0,0,452.639,0c-.262.468-.559,1.095-.776,1.6a21.811,21.811,0,0,0-6.672,0c-.205-.5-.525-1.129-.776-1.6a24.136,24.136,0,0,0-6.033,1.893,25.3,25.3,0,0,0-4.334,16.913,24.1,24.1,0,0,0,7.39,3.786,18.834,18.834,0,0,0,1.585-2.6,16.155,16.155,0,0,1-2.486-1.209l.616-.479a17.023,17.023,0,0,0,14.769,0c.205.171.4.331.616.479a15.34,15.34,0,0,1-2.5,1.22,17.207,17.207,0,0,0,1.585,2.6,24.1,24.1,0,0,0,7.39-3.786A25.376,25.376,0,0,0,458.672,1.893ZM443.687,15.408a2.836,2.836,0,0,1-2.623-2.988,2.645,2.645,0,1,1,5.246,0A2.821,2.821,0,0,1,443.687,15.408Zm9.694,0a2.836,2.836,0,0,1-2.623-2.988,2.645,2.645,0,1,1,5.246,0A2.813,2.813,0,0,1,453.381,15.408Z" transform="translate(0)" fill="#ffffff"/>
  </g>
</svg>
