<svg xmlns="http://www.w3.org/2000/svg" width="24.073" height="24.073" viewBox="0 0 24.073 24.073">
  <path id="instagram_logo" d="M12.037,2.14a36.907,36.907,0,0,1,4.815.134,6.2,6.2,0,0,1,2.274.4A4.7,4.7,0,0,1,21.4,4.948a6.2,6.2,0,0,1,.4,2.274c0,1.2.134,1.6.134,4.815a36.907,36.907,0,0,1-.134,4.815,6.2,6.2,0,0,1-.4,2.274A4.7,4.7,0,0,1,19.125,21.4a6.2,6.2,0,0,1-2.274.4c-1.2,0-1.6.134-4.815.134A36.907,36.907,0,0,1,7.222,21.8a6.2,6.2,0,0,1-2.274-.4,4.7,4.7,0,0,1-2.274-2.274,6.2,6.2,0,0,1-.4-2.274c0-1.2-.134-1.6-.134-4.815a36.907,36.907,0,0,1,.134-4.815,6.2,6.2,0,0,1,.4-2.274,4.8,4.8,0,0,1,.936-1.337,2.261,2.261,0,0,1,1.337-.936,6.2,6.2,0,0,1,2.274-.4,36.907,36.907,0,0,1,4.815-.134m0-2.14A39.517,39.517,0,0,0,7.088.134,8.257,8.257,0,0,0,4.146.669a5.236,5.236,0,0,0-2.14,1.337A5.236,5.236,0,0,0,.669,4.146,6.094,6.094,0,0,0,.134,7.088,39.517,39.517,0,0,0,0,12.037a39.517,39.517,0,0,0,.134,4.948,8.257,8.257,0,0,0,.535,2.942,5.236,5.236,0,0,0,1.337,2.14A5.236,5.236,0,0,0,4.146,23.4a8.257,8.257,0,0,0,2.942.535,39.517,39.517,0,0,0,4.948.134,39.517,39.517,0,0,0,4.948-.134,8.257,8.257,0,0,0,2.942-.535A5.611,5.611,0,0,0,23.4,19.927a8.257,8.257,0,0,0,.535-2.942c0-1.337.134-1.739.134-4.948a39.517,39.517,0,0,0-.134-4.948A8.257,8.257,0,0,0,23.4,4.146a5.236,5.236,0,0,0-1.337-2.14A5.236,5.236,0,0,0,19.927.669,8.257,8.257,0,0,0,16.985.134,39.517,39.517,0,0,0,12.037,0m0,5.885a6.053,6.053,0,0,0-6.152,6.152,6.152,6.152,0,1,0,6.152-6.152m0,10.164a3.941,3.941,0,0,1-4.012-4.012,3.941,3.941,0,0,1,4.012-4.012,3.941,3.941,0,0,1,4.012,4.012,3.941,3.941,0,0,1-4.012,4.012m6.42-11.9a1.471,1.471,0,1,0,1.471,1.471,1.484,1.484,0,0,0-1.471-1.471" fill="#c6e5fe" fill-rule="evenodd"/>
</svg>
