<svg xmlns="http://www.w3.org/2000/svg" width="20.572" height="24.073" viewBox="0 0 86.708 86.706">
  <path id="linkedin_icon_white" d="M19.409,86.706H1.432V28.817H19.409Zm-9-65.785A10.46,10.46,0,1,1,20.821,10.411,10.5,10.5,0,0,1,10.411,20.921ZM86.688,86.706H68.751V58.526c0-6.716-.135-15.329-9.346-15.329-9.346,0-10.778,7.3-10.778,14.845V86.706H30.669V28.817H47.91v7.9h.252c2.4-4.548,8.262-9.348,17.009-9.348,18.193,0,21.538,11.98,21.538,27.541v31.8Z" transform="translate(0 0)" fill="#c6e5fe"/>
</svg>
