<svg xmlns="http://www.w3.org/2000/svg" width="9.397" height="12.895" viewBox="0 0 9.397 12.895">
  <path id="Path_139" data-name="Path 139" d="M207.3,146.835a.973.973,0,0,0-.823-.966c-.145-.012-.166-.061-.167-.2a13.5,13.5,0,0,0-.034-1.721,3.72,3.72,0,0,0-4.238-3.266,3.838,3.838,0,0,0-3.083,3.811c0,.407,0,.813,0,1.22,0,.11-.022.147-.134.15a.964.964,0,0,0-.915.968q-.005,2.867,0,5.734a.923.923,0,0,0,.17.525.971.971,0,0,0,.874.438c1.217-.006,2.434,0,3.65,0v0c1.255,0,2.511,0,3.766,0a.97.97,0,0,0,.932-1q0-1.441,0-2.882c0-.935,0-1.871,0-2.806m-6.673-2.842a2.064,2.064,0,0,1,1.781-1.647,2.109,2.109,0,0,1,2.3,2.167c0,.4,0,.8,0,1.2,0,.113-.026.146-.137.145-.642-.006-1.284,0-1.926,0s-1.3,0-1.955,0c-.051,0-.125.029-.126-.074a8.171,8.171,0,0,1,.059-1.791" transform="translate(-197.908 -140.633)" fill="#23233a"/>
</svg>
