<svg xmlns="http://www.w3.org/2000/svg" width="13.111" height="18.552" viewBox="0 0 13.111 18.552">
  <path id="Path_139" data-name="Path 139" d="M211.016,149.555a1.387,1.387,0,0,0-1.149-1.389c-.2-.017-.232-.088-.233-.285a20.03,20.03,0,0,0-.047-2.476,5.223,5.223,0,0,0-5.913-4.7,5.484,5.484,0,0,0-4.3,5.482c0,.585,0,1.17,0,1.755,0,.158-.03.211-.187.215a1.369,1.369,0,0,0-1.277,1.392q-.008,4.124,0,8.249a1.417,1.417,0,0,0,1.457,1.385c1.7-.009,3.4,0,5.093,0v0c1.752,0,3.5.006,5.255,0a1.377,1.377,0,0,0,1.3-1.437q0-2.073,0-4.146c0-1.346,0-2.691,0-4.037m-9.311-4.088a2.916,2.916,0,0,1,2.485-2.369,2.982,2.982,0,0,1,3.209,3.117c.006.577,0,1.155,0,1.732,0,.162-.037.21-.191.209-.9-.008-1.791,0-2.687,0s-1.818,0-2.727,0c-.071,0-.174.042-.175-.107a12.115,12.115,0,0,1,.082-2.577" transform="translate(-197.908 -140.633)" fill="#ff8900"/>
</svg>
