<svg xmlns="http://www.w3.org/2000/svg" width="24.073" height="19.526" viewBox="0 0 24.073 19.526">
  <path id="twitter_logo" d="M45.623,21.526A13.918,13.918,0,0,0,59.666,7.483V6.815a10.871,10.871,0,0,0,2.407-2.541,11.1,11.1,0,0,1-2.809.8A5.2,5.2,0,0,0,61.4,2.4a12.267,12.267,0,0,1-3.076,1.2A4.776,4.776,0,0,0,54.718,2a5.025,5.025,0,0,0-4.948,4.948,2.607,2.607,0,0,0,.134,1.07A13.827,13.827,0,0,1,39.739,2.8a5.122,5.122,0,0,0-.669,2.541A5.314,5.314,0,0,0,41.21,9.49a4.509,4.509,0,0,1-2.274-.669h0a4.888,4.888,0,0,0,4.012,4.815,4.123,4.123,0,0,1-1.337.134,2.276,2.276,0,0,1-.936-.134,5.067,5.067,0,0,0,4.681,3.477,10.1,10.1,0,0,1-6.152,2.14,3.7,3.7,0,0,1-1.2-.134,12.624,12.624,0,0,0,7.623,2.407" transform="translate(-38 -2)" fill="#ffffff" fill-rule="evenodd"/>
</svg>
