<svg xmlns="http://www.w3.org/2000/svg" xmlns:xlink="http://www.w3.org/1999/xlink" width="89.69" height="23.83" viewBox="0 0 89.69 23.83">
  <defs>
    <clipPath id="clip-path">
      <rect id="Rectangle_323" data-name="Rectangle 323" width="89.69" height="23.83" fill="#fff"/>
    </clipPath>
  </defs>
  <g id="buidl1" clip-path="url(#clip-path)">
    <path id="Path_2502" data-name="Path 2502" d="M9.755,23.54a6.251,6.251,0,0,1-3.372-.753A5.343,5.343,0,0,1,4.648,21.12H4.059v1.961H0V.168H4.124V8.714h.589A4.608,4.608,0,0,1,5.679,7.6a4.837,4.837,0,0,1,1.6-.87,7.667,7.667,0,0,1,2.471-.344,7.033,7.033,0,0,1,6.318,3.8A9.325,9.325,0,0,1,17.087,14.7v.524a9.347,9.347,0,0,1-1.015,4.52A7.015,7.015,0,0,1,9.755,23.54m-1.244-3.6a4.4,4.4,0,0,0,3.175-1.225,4.752,4.752,0,0,0,1.277-3.587V14.8a4.775,4.775,0,0,0-1.26-3.582A4.376,4.376,0,0,0,8.511,9.991a4.39,4.39,0,0,0-3.175,1.228A4.739,4.739,0,0,0,4.059,14.8v.327a4.752,4.752,0,0,0,1.277,3.587,4.4,4.4,0,0,0,3.175,1.225" transform="translate(0 0.289)" fill="#fff"/>
    <path id="Path_2503" data-name="Path 2503" d="M13.927,19.114a6.267,6.267,0,0,1-3.325-.865,5.9,5.9,0,0,1-2.207-2.406,7.644,7.644,0,0,1-.786-3.538V2.616h4.122v9.365a3.8,3.8,0,0,0,.9,2.75,3.457,3.457,0,0,0,2.572.917,3.63,3.63,0,0,0,2.946-1.26A5.361,5.361,0,0,0,19.2,10.868V2.616h4.122V18.852H19.262V16.724H18.67a4.436,4.436,0,0,1-1.473,1.6,5.559,5.559,0,0,1-3.271.786" transform="translate(13.147 4.519)" fill="#fff"/>
    <path id="Path_2504" data-name="Path 2504" d="M17.483,5.237a2.652,2.652,0,0,1-1.882-.72,2.479,2.479,0,0,1-.769-1.9A2.479,2.479,0,0,1,15.6.72a2.841,2.841,0,0,1,3.781,0,2.506,2.506,0,0,1,.753,1.9,2.506,2.506,0,0,1-.753,1.9,2.641,2.641,0,0,1-1.9.72m-2.062,1.9h4.124V23.372H15.421Z" transform="translate(25.627 -0.001)" fill="#fff"/>
    <rect id="Rectangle_322" data-name="Rectangle 322" width="4.124" height="22.914" transform="translate(69.9 0.458)" fill="#fff"/>
    <path id="Path_2505" data-name="Path 2505" d="M36.444,23.082V3.245h-.589l-3.077,7.267H28.392L33.075.168h7.559V23.082Z" transform="translate(48.239 0.29)" fill="#00c4ff"/>
    <path id="Path_2506" data-name="Path 2506" d="M25.286,23.54a7.176,7.176,0,0,1-3.617-.963,7.068,7.068,0,0,1-2.7-2.831,9.316,9.316,0,0,1-1.017-4.52V14.7a9.294,9.294,0,0,1,1.017-4.515,7.033,7.033,0,0,1,6.318-3.8,7.679,7.679,0,0,1,2.471.344,5.072,5.072,0,0,1,1.62.87,4.005,4.005,0,0,1,.949,1.113h.586V.168h4.127V23.082H30.982V21.12h-.589a5.445,5.445,0,0,1-1.719,1.667,6.237,6.237,0,0,1-3.388.753m1.244-3.6a4.4,4.4,0,0,0,3.175-1.225,4.752,4.752,0,0,0,1.277-3.587V14.8a4.775,4.775,0,0,0-1.26-3.582A4.38,4.38,0,0,0,26.53,9.991a4.386,4.386,0,0,0-3.175,1.228A4.728,4.728,0,0,0,22.078,14.8v.327a4.742,4.742,0,0,0,1.277,3.587,4.395,4.395,0,0,0,3.175,1.225" transform="translate(30.867 0.289)" fill="#fff"/>
  </g>
</svg>
