<svg id="discord-icon-svgrepo-com" xmlns="http://www.w3.org/2000/svg" width="22.075" height="17.088" viewBox="0 0 22.075 17.088">
  <path id="Path_7337" data-name="Path 7337" d="M18.7,1.431A17.979,17.979,0,0,0,14.145,0a13.354,13.354,0,0,0-.583,1.211,16.722,16.722,0,0,0-5.047,0A12.946,12.946,0,0,0,7.924,0,17.919,17.919,0,0,0,3.367,1.435,19.1,19.1,0,0,0,.094,14.224a18.208,18.208,0,0,0,5.585,2.862,13.891,13.891,0,0,0,1.2-1.97A11.763,11.763,0,0,1,4.992,14.2c.158-.117.313-.239.462-.365a12.872,12.872,0,0,0,11.168,0c.151.126.306.248.462.365a11.733,11.733,0,0,1-1.887.919,13.83,13.83,0,0,0,1.2,1.97,18.171,18.171,0,0,0,5.589-2.864A19.081,19.081,0,0,0,18.7,1.431ZM7.37,11.649A2.143,2.143,0,0,1,5.386,9.392,2.131,2.131,0,0,1,7.37,7.132,2.118,2.118,0,0,1,9.355,9.392,2.129,2.129,0,0,1,7.37,11.649Zm7.334,0A2.143,2.143,0,0,1,12.72,9.392,2.131,2.131,0,0,1,14.7,7.132a2.118,2.118,0,0,1,1.985,2.259A2.13,2.13,0,0,1,14.7,11.649Z" transform="translate(0)" fill="#13131d"/>
</svg>
