<svg xmlns="http://www.w3.org/2000/svg" width="17.578" height="17.578" viewBox="0 0 17.578 17.578">
  <path id="iconmonstr-linkedin-3_1_" data-name="iconmonstr-linkedin-3 (1)" d="M13.916,0H3.662A3.663,3.663,0,0,0,0,3.662V13.916a3.663,3.663,0,0,0,3.662,3.662H13.916a3.662,3.662,0,0,0,3.662-3.662V3.662A3.662,3.662,0,0,0,13.916,0ZM5.859,13.916h-2.2V5.859h2.2Zm-1.1-8.985A1.292,1.292,0,1,1,6.042,3.639,1.287,1.287,0,0,1,4.761,4.931Zm9.888,8.985h-2.2v-4.1c0-2.467-2.93-2.28-2.93,0v4.1h-2.2V5.859h2.2V7.152a2.786,2.786,0,0,1,5.127,1.813Z"/>
</svg>
