<svg id="Twitter" xmlns="http://www.w3.org/2000/svg" width="19.699" height="15.978" viewBox="0 0 19.699 15.978">
  <path id="Path_2" data-name="Path 2" d="M44.238,17.978A11.389,11.389,0,0,0,55.729,6.487V5.94A8.9,8.9,0,0,0,57.7,3.86a9.085,9.085,0,0,1-2.3.657,4.258,4.258,0,0,0,1.751-2.189,10.038,10.038,0,0,1-2.517.985A3.908,3.908,0,0,0,51.68,2,4.112,4.112,0,0,0,47.63,6.049a2.133,2.133,0,0,0,.109.875,11.315,11.315,0,0,1-8.317-4.268,4.191,4.191,0,0,0-.547,2.079,4.348,4.348,0,0,0,1.751,3.393,3.689,3.689,0,0,1-1.86-.547h0a4,4,0,0,0,3.283,3.94,3.374,3.374,0,0,1-1.094.109,1.862,1.862,0,0,1-.766-.109,4.146,4.146,0,0,0,3.83,2.845,8.263,8.263,0,0,1-5.034,1.751A3.03,3.03,0,0,1,38,16.008a10.33,10.33,0,0,0,6.238,1.97" transform="translate(-38 -2)" fill="#13131d" fill-rule="evenodd"/>
</svg>
